<svg xmlns="http://www.w3.org/2000/svg" width="24.192" height="24.035" viewBox="0 0 24.192 24.035"><defs><style>.a{fill:#1877f2;}.b{fill:#fff;}</style></defs><g transform="translate(-1566.904 -91.983)"><g transform="translate(1557.485 91.983)"><path class="a" d="M21.514,0a12.091,12.091,0,0,0-1.89,24.034V15.586H16.553V12.091h3.071V9.427c0-3.03,1.806-4.7,4.569-4.7a18.555,18.555,0,0,1,2.683.232l.025,0V7.935H25.376a1.722,1.722,0,0,0-1.958,1.621c-.009.088-.013.178-.013.268v2.268h3.355l-.536,3.495H23.4v8.449A12.091,12.091,0,0,0,21.514,0Z"/></g><path class="b" d="M1580.89,107.568h2.819l.536-3.495h-3.355v-2.268a2.635,2.635,0,0,1,.014-.267,1.722,1.722,0,0,1,1.958-1.621h1.525V96.942l-.024,0a18.538,18.538,0,0,0-2.683-.232c-2.763,0-4.569,1.674-4.569,4.7v2.664h-3.071v3.495h3.071v8.449a12.1,12.1,0,1,1,3.78,0Z"/></g></svg>