<svg xmlns="http://www.w3.org/2000/svg" width="120.001" height="67" viewBox="0 0 120.001 67"><defs><style>.a{fill:#1d6325;}.b{fill:#161615;}.c{fill:none;stroke:#161615;stroke-width:0.84px;}.d{fill:#fff;}</style></defs><g transform="translate(-241 -70)"><g transform="translate(220.174 63.838)"><path class="a" d="M22.49,59.573v2.579h2.5V59.573H26.5v6.712H24.99V63.477h-2.5v2.809H20.966V59.573Z"/><path class="a" d="M30.347,59.573v6.712H28.823V59.573Z"/><path class="a" d="M32.657,59.573H34.18v5.437H36.85v1.275H32.657Z"/><path class="a" d="M38.74,59.573h1.524v5.437h2.669v1.275H38.74Z"/><path class="a" d="M52.762,66.1a4.337,4.337,0,0,1-1.723.289,3.193,3.193,0,0,1-3.516-3.357,3.422,3.422,0,0,1,3.665-3.565,3.95,3.95,0,0,1,1.654.3l-.309,1.2a3.271,3.271,0,0,0-1.275-.249,2.207,2.207,0,0,0,.01,4.412,3.8,3.8,0,0,0,1.265-.218Z"/><path class="a" d="M60.6,62.859a3.2,3.2,0,0,1-3.3,3.535,3.129,3.129,0,0,1-3.157-3.416,3.249,3.249,0,0,1,3.266-3.516A3.129,3.129,0,0,1,60.6,62.859Zm-4.85.09c0,1.315.617,2.241,1.633,2.241S59,64.214,59,62.91c0-1.206-.578-2.241-1.623-2.241C56.345,60.669,55.749,61.645,55.749,62.949Z"/><path class="a" d="M64.1,59.573v3.863c0,1.155.439,1.744,1.215,1.744.8,0,1.235-.557,1.235-1.744V59.573h1.514v3.764c0,2.072-1.046,3.058-2.8,3.058-1.693,0-2.688-.936-2.688-3.077V59.573Z"/><path class="a" d="M70.375,66.286V59.573h1.773l1.394,2.459a19.35,19.35,0,0,1,1.1,2.3h.03a24.991,24.991,0,0,1-.13-2.8V59.573h1.395v6.712H74.339L72.9,63.7a24.833,24.833,0,0,1-1.164-2.37l-.031.01c.04.887.06,1.833.06,2.929v2.021Z"/><path class="a" d="M79.536,60.848h-1.8V59.573h5.159v1.275H81.06v5.438H79.536Z"/><path class="a" d="M84.694,59.662a13.346,13.346,0,0,1,2.021-.139,3.426,3.426,0,0,1,2.171.528,1.7,1.7,0,0,1,.617,1.4,1.782,1.782,0,0,1-1.185,1.653v.03a1.7,1.7,0,0,1,.9,1.255c.209.757.419,1.633.547,1.892H88.21a8.357,8.357,0,0,1-.468-1.563c-.179-.837-.469-1.066-1.086-1.076H86.2v2.639h-1.5Zm1.5,2.889h.6c.758,0,1.205-.378,1.205-.967,0-.617-.418-.926-1.115-.936a3.827,3.827,0,0,0-.687.049Z"/><path class="a" d="M92.959,66.286V63.537l-2.121-3.964h1.733l.687,1.614c.209.487.348.846.517,1.284h.02c.15-.419.31-.807.509-1.284l.677-1.614h1.7l-2.21,3.914v2.8Z"/><path class="a" d="M101.413,59.662a13.352,13.352,0,0,1,2.021-.139,3.426,3.426,0,0,1,2.171.528,1.7,1.7,0,0,1,.617,1.4,1.781,1.781,0,0,1-1.185,1.653v.03a1.7,1.7,0,0,1,.9,1.255c.209.757.418,1.633.547,1.892h-1.553a8.372,8.372,0,0,1-.469-1.563c-.179-.837-.468-1.066-1.085-1.076h-.458v2.639h-1.5Zm1.5,2.889h.6c.756,0,1.2-.378,1.2-.967,0-.617-.419-.926-1.115-.936a3.855,3.855,0,0,0-.688.049Z"/><path class="a" d="M112.307,63.448h-2.471V65.04H112.6v1.245h-4.282V59.573h4.142v1.244h-2.619v1.394h2.471Z"/><path class="a" d="M114.676,64.722a3.879,3.879,0,0,0,1.684.418c.7,0,1.065-.289,1.065-.727,0-.418-.318-.657-1.125-.945-1.116-.388-1.842-1.006-1.842-1.982,0-1.146.955-2.022,2.54-2.022a4.12,4.12,0,0,1,1.713.339l-.339,1.225a3.194,3.194,0,0,0-1.4-.319c-.657,0-.975.3-.975.647,0,.429.378.618,1.244.947,1.185.438,1.744,1.056,1.744,2,0,1.126-.867,2.082-2.709,2.082a4.4,4.4,0,0,1-1.9-.408Z"/><path class="a" d="M127.143,62.859a3.2,3.2,0,0,1-3.3,3.535,3.13,3.13,0,0,1-3.157-3.416,3.249,3.249,0,0,1,3.267-3.516A3.129,3.129,0,0,1,127.143,62.859Zm-4.85.09c0,1.315.617,2.241,1.633,2.241s1.614-.976,1.614-2.28c0-1.206-.578-2.241-1.623-2.241C122.891,60.669,122.293,61.645,122.293,62.949Z"/><path class="a" d="M129.134,59.662a13.369,13.369,0,0,1,2.022-.139,3.423,3.423,0,0,1,2.17.528,1.7,1.7,0,0,1,.618,1.4,1.78,1.78,0,0,1-1.185,1.653v.03a1.694,1.694,0,0,1,.9,1.255c.209.757.419,1.633.548,1.892H132.65a8.449,8.449,0,0,1-.468-1.563c-.179-.837-.468-1.066-1.085-1.076h-.458v2.639h-1.5Zm1.5,2.889h.6c.758,0,1.206-.378,1.206-.967,0-.617-.419-.926-1.116-.936a3.824,3.824,0,0,0-.686.049Z"/><path class="a" d="M137.329,60.848h-1.8V59.573h5.159v1.275h-1.833v5.438h-1.524Z"/><path class="b" d="M22.944,71.557H21.629v1.024H23.1V73.1H20.992V69.615h2.029v.524H21.629v.9h1.315Z"/><path class="b" d="M25.838,73.1l-.378-.694c-.15-.269-.248-.455-.346-.657H25.1c-.083.2-.177.388-.316.657l-.346.694h-.73l1.035-1.765-.994-1.724h.729l.378.72c.114.218.2.388.29.585h.01c.094-.218.166-.373.275-.585l.372-.72h.729l-1.02,1.7L26.573,73.1Z"/><path class="b" d="M27.356,69.662a5.518,5.518,0,0,1,.973-.072,1.58,1.58,0,0,1,1.03.284.986.986,0,0,1,.343.772,1.054,1.054,0,0,1-.3.791,1.537,1.537,0,0,1-1.1.373,1.832,1.832,0,0,1-.311-.021V73.1h-.632Zm.632,1.625a1.284,1.284,0,0,0,.311.026c.475,0,.766-.233.766-.643,0-.388-.27-.595-.71-.595a1.787,1.787,0,0,0-.367.031Z"/><path class="b" d="M32.513,71.557H31.2v1.024h1.469V73.1H30.562V69.615h2.03v.524H31.2v.9h1.314Z"/><path class="b" d="M33.539,69.662a6.054,6.054,0,0,1,.963-.072,1.619,1.619,0,0,1,1.076.28.881.881,0,0,1,.3.7.93.93,0,0,1-.631.875v.015a.888.888,0,0,1,.486.673,6.81,6.81,0,0,0,.275.973h-.658a5.006,5.006,0,0,1-.233-.823c-.1-.456-.263-.6-.626-.611h-.32V73.1h-.632Zm.632,1.543h.377c.429,0,.7-.227.7-.574,0-.384-.27-.56-.683-.56a1.778,1.778,0,0,0-.393.031Z"/><path class="b" d="M37.433,69.615V73.1H36.8V69.615Z"/><path class="b" d="M40.426,71.557H39.111v1.024h1.47V73.1H38.474V69.615H40.5v.524H39.111v.9h1.315Z"/><path class="b" d="M41.452,73.1V69.615h.725l.9,1.5a9.568,9.568,0,0,1,.6,1.17h.011c-.042-.466-.058-.916-.058-1.45V69.615h.591V73.1h-.657l-.911-1.533a12.291,12.291,0,0,1-.626-1.206l-.016.006c.026.45.032.911.032,1.486V73.1Z"/><path class="b" d="M47.763,73a2.21,2.21,0,0,1-.9.155A1.645,1.645,0,0,1,45.082,71.4a1.756,1.756,0,0,1,1.863-1.844,2.014,2.014,0,0,1,.849.156l-.139.508a1.682,1.682,0,0,0-.683-.135,1.163,1.163,0,0,0-1.222,1.285,1.145,1.145,0,0,0,1.217,1.257,1.771,1.771,0,0,0,.693-.129Z"/><path class="b" d="M50.571,71.557H49.256v1.024h1.47V73.1H48.619V69.615h2.03v.524H49.256v.9h1.315Z"/><path class="b" d="M52.979,73.1V69.615H53.7l.9,1.5a9.406,9.406,0,0,1,.594,1.17h.011c-.041-.466-.057-.916-.057-1.45V69.615h.589V73.1h-.657l-.911-1.533a12.051,12.051,0,0,1-.626-1.206l-.015.006c.026.45.03.911.03,1.486V73.1Z"/><path class="b" d="M57.489,72.116l-.3.989h-.658l1.118-3.489h.813L59.6,73.1h-.683l-.316-.989Zm1-.481-.274-.859c-.067-.212-.124-.45-.176-.652h-.01c-.052.2-.1.445-.166.652l-.269.859Z"/><path class="b" d="M60.643,70.149h-.994v-.533h2.635v.533h-1V73.1h-.636Z"/><path class="b" d="M63.636,69.615V71.65c0,.683.285,1,.715,1,.46,0,.734-.316.734-1V69.615h.636v1.993c0,1.076-.553,1.553-1.392,1.553-.808,0-1.33-.451-1.33-1.548v-2Z"/><path class="b" d="M66.764,69.662a6.06,6.06,0,0,1,.963-.072,1.618,1.618,0,0,1,1.077.28.882.882,0,0,1,.3.7.931.931,0,0,1-.632.875v.015a.89.89,0,0,1,.486.673,6.988,6.988,0,0,0,.274.973h-.657a4.833,4.833,0,0,1-.233-.823c-.1-.456-.265-.6-.627-.611H67.4V73.1h-.632Zm.632,1.543h.378c.43,0,.7-.227.7-.574,0-.384-.269-.56-.683-.56a1.782,1.782,0,0,0-.394.031Z"/><path class="b" d="M71.973,71.557H70.658v1.024h1.47V73.1H70.022V69.615h2.029v.524H70.658v.9h1.315Z"/><path class="b" d="M75.018,69.615V73.1h-.636V69.615Z"/><path class="b" d="M76.06,73.1V69.615h.725l.9,1.5a9.649,9.649,0,0,1,.6,1.17h.011c-.041-.466-.057-.916-.057-1.45V69.615h.589V73.1h-.657l-.911-1.533a12.053,12.053,0,0,1-.626-1.206l-.016.006c.026.45.031.911.031,1.486V73.1Z"/><path class="b" d="M81.254,69.662a6.033,6.033,0,0,1,.962-.072,1.617,1.617,0,0,1,1.077.28.88.88,0,0,1,.3.7.93.93,0,0,1-.632.875v.015a.885.885,0,0,1,.486.673,7.071,7.071,0,0,0,.274.973h-.657a5.067,5.067,0,0,1-.233-.823c-.1-.456-.264-.6-.626-.611h-.321V73.1h-.631Zm.631,1.543h.378c.429,0,.7-.227.7-.574,0-.384-.269-.56-.683-.56a1.785,1.785,0,0,0-.393.031Z"/><path class="b" d="M86.462,71.557H85.148v1.024h1.469V73.1H84.511V69.615H86.54v.524H85.148v.9h1.314Z"/><path class="b" d="M90.433,71.682c-.021-.451-.045-.994-.041-1.465h-.015c-.114.424-.259.9-.414,1.335l-.508,1.512h-.491L88.5,71.572c-.134-.445-.259-.92-.352-1.356h-.01c-.015.455-.036,1.009-.062,1.486L88,73.1h-.6l.233-3.489h.837l.456,1.4c.125.409.233.823.321,1.211h.016c.093-.378.212-.808.346-1.217l.482-1.4h.828l.2,3.489H90.5Z"/><path class="b" d="M92.749,72.116l-.3.989h-.658l1.118-3.489h.812L94.856,73.1h-.683l-.316-.989Zm1-.481-.274-.859c-.067-.212-.125-.45-.176-.652h-.01c-.053.2-.1.445-.166.652l-.269.859Z"/><path class="b" d="M95.655,69.662a6.036,6.036,0,0,1,.963-.072,1.615,1.615,0,0,1,1.076.28.878.878,0,0,1,.3.7.93.93,0,0,1-.632.875v.015a.886.886,0,0,1,.487.673,7.069,7.069,0,0,0,.274.973h-.657a5.007,5.007,0,0,1-.233-.823c-.1-.456-.265-.6-.626-.611h-.321V73.1h-.631Zm.631,1.543h.378c.43,0,.7-.227.7-.574,0-.384-.269-.56-.683-.56a1.782,1.782,0,0,0-.394.031Z"/><path class="b" d="M98.912,69.615h.632v1.6h.015c.083-.134.172-.258.254-.377l.912-1.227h.786l-1.2,1.486,1.278,2h-.746l-.988-1.6-.311.373V73.1h-.632Z"/><path class="b" d="M103,72.116l-.3.989h-.658l1.118-3.489h.812L105.1,73.1h-.683l-.315-.989Zm1-.481-.274-.859c-.067-.212-.124-.45-.176-.652h-.01c-.053.2-.1.445-.166.652l-.269.859Z"/><path class="b" d="M105.9,69.662a5.313,5.313,0,0,1,.926-.072,1.66,1.66,0,0,1,1,.222.737.737,0,0,1,.363.653.81.81,0,0,1-.58.755v.011a.879.879,0,0,1,.7.865.9.9,0,0,1-.337.718,1.934,1.934,0,0,1-1.293.327,6.157,6.157,0,0,1-.782-.047Zm.631,1.376h.327c.439,0,.688-.207.688-.5,0-.326-.249-.476-.652-.476a1.8,1.8,0,0,0-.363.025Zm0,1.6a2.624,2.624,0,0,0,.337.017c.409,0,.772-.156.772-.585,0-.4-.352-.57-.793-.57h-.316Z"/><path class="b" d="M109.2,69.615h.638v2.956h1.433V73.1H109.2Z"/><path class="b" d="M114.012,71.557H112.7v1.024h1.47V73.1H112.06V69.615h2.029v.524H112.7v.9h1.315Z"/><path class="b" d="M118.92,73a2.21,2.21,0,0,1-.9.155,1.645,1.645,0,0,1-1.78-1.754,1.755,1.755,0,0,1,1.863-1.844,2.02,2.02,0,0,1,.85.156l-.14.508a1.682,1.682,0,0,0-.683-.135,1.162,1.162,0,0,0-1.221,1.285,1.145,1.145,0,0,0,1.216,1.257,1.781,1.781,0,0,0,.694-.129Z"/><path class="b" d="M122.736,71.324a1.649,1.649,0,0,1-1.671,1.838,1.612,1.612,0,0,1-1.6-1.775,1.671,1.671,0,0,1,1.656-1.828A1.611,1.611,0,0,1,122.736,71.324Zm-2.6.051c0,.709.357,1.273.968,1.273s.963-.57.963-1.3c0-.658-.327-1.279-.963-1.279S120.133,70.656,120.133,71.376Z"/><path class="b" d="M126.543,71.682c-.021-.451-.047-.994-.041-1.465h-.016c-.114.424-.258.9-.414,1.335l-.507,1.512h-.492l-.466-1.491c-.134-.445-.259-.92-.352-1.356h-.011c-.016.455-.036,1.009-.062,1.486l-.077,1.4h-.6l.233-3.489h.838l.456,1.4c.123.409.233.823.32,1.211h.016c.093-.378.212-.808.346-1.217l.481-1.4h.828l.2,3.489h-.621Z"/><path class="b" d="M128.191,69.615H130.2v.524h-1.376V71.1h1.283v.524h-1.283V73.1h-.637Z"/><path class="b" d="M134.233,71.324a1.649,1.649,0,0,1-1.672,1.838,1.612,1.612,0,0,1-1.6-1.775,1.67,1.67,0,0,1,1.656-1.828A1.612,1.612,0,0,1,134.233,71.324Zm-2.6.051c0,.709.358,1.273.969,1.273s.962-.57.962-1.3c0-.658-.326-1.279-.962-1.279S131.629,70.656,131.629,71.376Z"/><path class="b" d="M135.093,69.662a6.047,6.047,0,0,1,.963-.072,1.618,1.618,0,0,1,1.077.28.882.882,0,0,1,.3.7.931.931,0,0,1-.632.875v.015a.889.889,0,0,1,.486.673,6.966,6.966,0,0,0,.275.973h-.657a4.891,4.891,0,0,1-.233-.823c-.1-.456-.265-.6-.626-.611h-.322V73.1h-.631Zm.631,1.543h.378c.43,0,.7-.227.7-.574,0-.384-.269-.56-.683-.56a1.784,1.784,0,0,0-.394.031Z"/><path class="b" d="M139.044,70.149h-.994v-.533h2.635v.533h-1V73.1h-.638Z"/><path class="a" d="M20.826,56.676s1.774-.666,4.978-1.52c1.6-.423,3.556-.919,5.822-1.374,2.262-.471,4.829-.955,7.65-1.34,1.41-.2,2.879-.413,4.407-.569,1.526-.179,3.108-.33,4.738-.434l2.477-.181c.837-.057,1.685-.076,2.543-.117l2.6-.1c.876-.026,1.76-.005,2.652-.01l2.7,0c.907-.005,1.818.056,2.736.081l2.771.1c.93.02,1.858.132,2.793.2,1.867.174,3.757.271,5.637.54l5.627.7c1.868.237,3.745.517,5.6.725l5.5.546q2.756.177,5.461.386l5.342.235,5.173.094c1.691.022,3.346-.006,4.959-.006,3.223-.064,6.272-.157,9.088-.3,2.813-.162,5.393-.334,7.68-.523,2.283-.207,4.277-.4,5.915-.581s2.928-.346,3.8-.47l1.345-.193s-.453.138-1.309.369-2.117.552-3.737.907l-2.685.567c-.981.191-2.043.39-3.18.587s-2.351.4-3.633.589-2.634.369-4.046.536-2.885.337-4.414.479c-1.528.125-3.11.262-4.739.362-1.629.08-3.3.189-5.016.25s-3.465.074-5.248.083l-5.429-.08c-1.833-.078-3.69-.168-5.56-.271l-5.665-.494c-1.882-.2-3.741-.467-5.616-.7l-5.585-.751c-1.84-.283-3.692-.394-5.521-.582s-3.652-.284-5.452-.41c-.9-.05-1.794-.137-2.684-.158l-2.65-.081c-.876-.021-1.746-.067-2.607-.066l-2.56-.007c-.844,0-1.68-.022-2.505-.006l-2.445.061c-.8.025-1.6.03-2.381.069l-2.308.119c-1.516.052-2.977.162-4.38.269-1.407.086-2.747.237-4.027.353s-2.489.256-3.628.386c-2.275.275-4.257.549-5.886.805s-2.907.48-3.775.648Z"/><path class="b" d="M26.435,26.269c3.546,0,5.368,2.073,5.368,5.7v.713H28.356v-.939c0-1.62-.662-2.236-1.823-2.236s-1.823.616-1.823,2.236c0,1.652.729,2.883,3.115,4.924,3.049,2.625,4.01,4.5,4.01,7.1,0,3.629-1.856,5.7-5.434,5.7s-5.436-2.074-5.436-5.7V42.371h3.447v1.62c0,1.62.729,2.2,1.889,2.2s1.889-.583,1.889-2.2c0-1.652-.729-2.884-3.115-4.925-3.048-2.624-4.01-4.5-4.01-7.1C21.066,28.343,22.888,26.269,26.435,26.269Z"/><path class="b" d="M38.367,40.221,37.24,42.341v7.126H33.6v-23.2H37.24V36.31h.066l4.707-10.041h3.644l-5.07,10.339,5.07,12.859H41.914Z"/><path class="b" d="M64.74,36.046h5.005v3.314H64.74v6.793h6.3v3.315H61.1v-23.2h9.942v3.314h-6.3Z"/><path class="b" d="M77.038,26.269H88.305v3.314H84.494V49.467H80.848V29.583H77.038Z"/><path class="b" d="M93.869,36.046h5v3.314h-5v6.793h6.3v3.315H90.223v-23.2h9.942v3.314h-6.3Z"/><path class="b" d="M114.253,26.269l-3.811,11.267,4.075,11.931h-3.843l-2.95-9.18h-.067l-2.983,9.18h-3.413l4.077-11.931-3.811-11.267H105.3l2.718,8.55h.067l2.783-8.55Z"/><path class="b" d="M135.283,26.269c3.546,0,5.369,2.073,5.369,5.7v.713h-3.447v-.939c0-1.62-.663-2.236-1.823-2.236s-1.822.616-1.822,2.236c0,1.652.729,2.883,3.116,4.924,3.048,2.625,4.009,4.5,4.009,7.1,0,3.629-1.856,5.7-5.434,5.7s-5.434-2.074-5.434-5.7V42.371h3.446v1.62c0,1.62.729,2.2,1.889,2.2s1.889-.583,1.889-2.2c0-1.652-.729-2.884-3.115-4.925-3.048-2.624-4.01-4.5-4.01-7.1C129.915,28.343,131.738,26.269,135.283,26.269Z"/><path class="b" d="M56.714,26.23c-.286.9-.685,2.175-1.079,3.432h0c-.991,3.161-2.231,7.154-2.231,7.154H53.29s-1.239-3.993-2.232-7.154h0c-.386-1.235-.8-2.528-1.085-3.428H46.59c.146.336.341.816.552,1.388.139.377,4.524,14.131,4.524,14.131v7.713H55.03V41.754S59.415,28,59.554,27.623c.217-.587.41-1.055.558-1.394Z"/><path class="b" d="M39.584,11.6l.094-.132c-.023-.283-.036-.507-.036-.641a11.322,11.322,0,0,1,.675-4.263s.3-.78-.233-.163A6.209,6.209,0,0,0,38.91,9.506c-.047,1.025-.14,1.758-.14,2.456,0,.272,0,.564.017.863C39.023,12.429,39.292,12.008,39.584,11.6Z"/><path class="b" d="M49.872,26.228c-.007-.021-.015-.043-.021-.064a9.372,9.372,0,0,0-1.058-2.437c-.269-.54-.311-.3-.21-2.242a5.534,5.534,0,0,0-.185-1.829,5.088,5.088,0,0,1-.429-2.066c.092-.735-.444-.306-.474.75s.167,2.234.046,2.953-.147,1.539-1.158,1.339-2.074-.7-2.273-1.263a18.3,18.3,0,0,1-.812-4.53c.077-1.209.2-3.015.292-3.505s.214-2.449-.184-1.393a32.568,32.568,0,0,0-1.071,4.3,18.839,18.839,0,0,0,.168,3.795c.138.888-.123.842-.949-.275s-.7-3.275-1.01-5.066c-.09-.521-.173-1.088-.247-1.644-.35.778-.664,1.526-.791,1.938-.006.018-.01.036-.015.054.124,1.325.246,3.032.257,3.811A2.559,2.559,0,0,1,39.17,17.7a5.13,5.13,0,0,1-.015-2.816,47.308,47.308,0,0,1,1.951-4.408s.391-.631.276-.758-.414.218-1.148,1.252a19.791,19.791,0,0,0-1.642,2.8,6.818,6.818,0,0,0-.746,2.87,5.072,5.072,0,0,0,.8,2.686,7.06,7.06,0,0,0,.973,1.24,11.831,11.831,0,0,0,2.3,1.816c.014.01.029.022.043.03.09.055.208.12.342.193.116.064.233.125.352.184h0c.751.385,1.82.89,2.626,1.277.859.413,1.619.448,2.285,1.478,0,0,.117.229.306.664Z"/><path class="b" d="M56.831,26.182c.008-.021.015-.043.021-.064a9.4,9.4,0,0,1,1.058-2.437c.269-.54.311-.3.21-2.242a5.533,5.533,0,0,1,.186-1.829,5.107,5.107,0,0,0,.429-2.066c-.092-.735.444-.306.474.75s-.168,2.234-.046,2.953.147,1.539,1.157,1.34,2.074-.7,2.273-1.263a18.324,18.324,0,0,0,.812-4.53c-.077-1.209-.2-3.015-.291-3.505S62.9,10.84,63.3,11.9a32.569,32.569,0,0,1,1.071,4.3,18.88,18.88,0,0,1-.168,3.795c-.137.888.123.842.949-.275s.7-3.275,1.01-5.066c.09-.521.173-1.088.247-1.644.35.778.664,1.526.791,1.938.006.018.01.036.015.054-.125,1.325-.246,3.032-.257,3.81a2.541,2.541,0,0,0,.577-1.155,5.126,5.126,0,0,0,.016-2.816A47.231,47.231,0,0,0,65.6,10.43s-.39-.631-.275-.758.414.218,1.148,1.252a19.828,19.828,0,0,1,1.642,2.8,6.821,6.821,0,0,1,.746,2.869,5.062,5.062,0,0,1-.8,2.686,7.094,7.094,0,0,1-.972,1.24,11.868,11.868,0,0,1-2.3,1.816c-.015.01-.029.022-.043.03-.09.055-.208.12-.342.193-.116.064-.233.125-.352.184h0c-.751.385-1.819.89-2.626,1.277-.859.413-1.619.448-2.286,1.478,0,0-.117.229-.306.664Z"/><path class="b" d="M67.213,11.6l-.094-.132c.022-.283.035-.507.035-.641a11.3,11.3,0,0,0-.676-4.263s-.3-.78.233-.163a6.221,6.221,0,0,1,1.176,3.107c.046,1.025.139,1.758.139,2.456,0,.272,0,.564-.017.863C67.773,12.429,67.5,12.008,67.213,11.6Z"/><path class="b" d="M120.788,26.214H124.5l5.49,23.349h-3.524l-1.03-4.828h-5.7l-1.06,4.828h-3.431Zm-.18,14.521h3.972l-1.957-9.182Z"/><path class="b" d="M123.421,25.226a4.653,4.653,0,0,1,1.858-.269l-.4-1.631a6.762,6.762,0,0,0,.718-.244l.749,1.946a6.582,6.582,0,0,1,1.411-1.18l-.891-1.437a6.891,6.891,0,0,0,.888-.711l1.417,1.556a6.586,6.586,0,0,1,.887-1.611l-1.369-1.03a6.883,6.883,0,0,0,.516-.873l1.886.977a6.607,6.607,0,0,1,.273-1.819l-1.661-.5a6.793,6.793,0,0,0,.2-1.261l1.072.015c.087,1.508,2.623,1.8,2.623,1.8l6.045.991-.216-6.351-5.721,1.02c-3.164.433-2.579,1.64-2.579,1.64H129.9a6.827,6.827,0,0,0-.186-1.213l2.122-.479A6.591,6.591,0,0,1,130.876,13l-1.642.711a6.815,6.815,0,0,0-.57-.964l1.83-1.233a6.582,6.582,0,0,1-1.465-1.111l-1.292,1.278a7,7,0,0,0-.635-.528l1.344-1.772a6.6,6.6,0,0,1-1.746-.579l-.815,1.637a6.871,6.871,0,0,0-.686-.269l.73-2.111a6.6,6.6,0,0,1-1.84-.006l-.265,1.814a6.825,6.825,0,0,0-.783-.046c-.139,0-.277.005-.413.013L122.513,7.6a6.585,6.585,0,0,1-1.708.682l.432,1.779a6.851,6.851,0,0,0-.7.233l-.8-2.083a6.586,6.586,0,0,1-1.411,1.179l.959,1.55a6.933,6.933,0,0,0-.881.682l-1.492-1.639a6.568,6.568,0,0,1-.888,1.611l1.441,1.084a6.757,6.757,0,0,0-.525.852l-1.948-1.01a6.609,6.609,0,0,1-.273,1.819l1.7.509a6.96,6.96,0,0,0-.18.842L114.1,15.38a6.6,6.6,0,0,1,.336,1.808l1.747-.073a6.717,6.717,0,0,0,.154,1.089l-2.087.47a6.586,6.586,0,0,1,.963,1.567l1.58-.684a6.825,6.825,0,0,0,.555.988l-1.753,1.181a6.575,6.575,0,0,1,1.465,1.111l1.209-1.2a6.831,6.831,0,0,0,.641.55l-1.266,1.669a6.561,6.561,0,0,1,1.745.578l.75-1.507a7,7,0,0,0,.7.282l-.681,1.967a6.6,6.6,0,0,1,1.839.007l.244-1.659c.053.007.988,0,1.042,0Zm6.213-8.965H126.57a3.528,3.528,0,0,0-.1-.483l2.98-.672A6.6,6.6,0,0,1,129.634,16.261Zm-5.794,0a.911.911,0,1,0,.045.795l2.423.034a3.294,3.294,0,1,1-.007-.829Zm5.149-2.442-2.8,1.216a3.471,3.471,0,0,0-.274-.43l2.532-1.706A6.622,6.622,0,0,1,128.988,13.82Zm-1.441-1.947-2.171,2.149a3.468,3.468,0,0,0-.281-.222l1.845-2.431A6.878,6.878,0,0,1,127.548,11.872Zm-1.781-1.19-1.36,2.733c-.1-.04-.193-.076-.292-.107l1-2.882A6.371,6.371,0,0,1,125.767,10.682Zm-2.725-.591a6.773,6.773,0,0,1,.743.043l-.442,3.023c-.1-.009-.2-.016-.3-.016-.083,0-.164.007-.245.012l-.156-3.049C122.774,10.1,122.907,10.092,123.041,10.092Zm-1.74.234.72,2.967q-.149.045-.293.1l-1.1-2.848A6.619,6.619,0,0,1,121.3,10.326Zm-1.875.846,1.606,2.594a3.672,3.672,0,0,0-.392.316l-2.055-2.257A6.75,6.75,0,0,1,119.426,11.172Zm-1.747,1.671,2.438,1.835a3.362,3.362,0,0,0-.231.383l-2.709-1.4A6.756,6.756,0,0,1,117.679,12.844Zm-1,2.086,2.926.876a3.669,3.669,0,0,0-.074.37l-3.023-.443A6.476,6.476,0,0,1,116.675,14.93Zm-.229,2.175,3.051-.128a3.644,3.644,0,0,0,.073.5l-2.977.671A6.627,6.627,0,0,1,116.446,17.1Zm.588,2.346,2.8-1.215a3.572,3.572,0,0,0,.257.456l-2.529,1.7A6.617,6.617,0,0,1,117.034,19.45Zm1.42,2,2.17-2.147a3.362,3.362,0,0,0,.288.24l-1.845,2.433A6.746,6.746,0,0,1,118.454,21.452Zm1.8,1.239,1.359-2.733c.1.044.2.083.308.118l-1,2.884A6.41,6.41,0,0,1,120.254,22.69Zm2.023.574.443-3.021c.09.008.18.013.273.014l.032.374.255,2.639C123.22,23.264,122.335,23.271,122.277,23.264Zm2.542-.2L124.1,20.1a3.262,3.262,0,0,0,.311-.114l1.094,2.847A6.435,6.435,0,0,1,124.819,23.064Zm1.909-.881-1.609-2.6a3.6,3.6,0,0,0,.406-.338l2.052,2.255A6.688,6.688,0,0,1,126.728,22.183Zm1.749-1.73-2.441-1.837a3.722,3.722,0,0,0,.223-.4l2.711,1.405A6.67,6.67,0,0,1,128.477,20.453Zm.971-2.128-2.928-.877c.024-.116.044-.234.057-.354l3.058.043A6.679,6.679,0,0,1,129.448,18.325Z"/><line class="c" y1="10.075" transform="translate(122.78 20.091)"/></g><path class="d" d="M351.131,135.224a1.67,1.67,0,0,1,1.656-1.828,1.612,1.612,0,0,1,1.62,1.766A1.65,1.65,0,0,1,352.734,137,1.612,1.612,0,0,1,351.131,135.224Zm.672-.011c0,.709.357,1.273.969,1.273s.961-.57.961-1.3c0-.658-.326-1.279-.961-1.279S351.8,134.494,351.8,135.213Zm-12.169.011a1.672,1.672,0,0,1,1.657-1.828,1.611,1.611,0,0,1,1.619,1.766A1.648,1.648,0,0,1,341.239,137,1.613,1.613,0,0,1,339.634,135.224Zm.674-.011c0,.709.356,1.273.967,1.273s.963-.57.963-1.3c0-.658-.328-1.279-.963-1.279S340.308,134.494,340.308,135.213Zm-57.134.238v-2h.635v2.035c0,.684.286,1,.716,1,.461,0,.734-.315.734-1v-2.035h.636v1.993c0,1.076-.553,1.553-1.391,1.553C283.7,137,283.174,136.549,283.174,135.452Zm53.24-.211a1.755,1.755,0,0,1,1.863-1.844,2.021,2.021,0,0,1,.85.156l-.14.508a1.673,1.673,0,0,0-.683-.136,1.162,1.162,0,0,0-1.221,1.284,1.144,1.144,0,0,0,1.216,1.257,1.787,1.787,0,0,0,.694-.129l.1.5a2.2,2.2,0,0,1-.9.156A1.645,1.645,0,0,1,336.414,135.24Zm-71.158,0a1.756,1.756,0,0,1,1.864-1.844,2.016,2.016,0,0,1,.849.156l-.14.508a1.67,1.67,0,0,0-.683-.136,1.163,1.163,0,0,0-1.222,1.284,1.145,1.145,0,0,0,1.217,1.257,1.779,1.779,0,0,0,.693-.129l.1.5a2.2,2.2,0,0,1-.9.156A1.646,1.646,0,0,1,265.256,135.24Zm60.821,1.692V133.5a5.294,5.294,0,0,1,.925-.073,1.663,1.663,0,0,1,1,.222.739.739,0,0,1,.363.653.81.81,0,0,1-.581.755v.011a.879.879,0,0,1,.7.865.9.9,0,0,1-.337.718,1.933,1.933,0,0,1-1.293.327A6.148,6.148,0,0,1,326.077,136.932Zm.631-.451a2.507,2.507,0,0,0,.337.017c.409,0,.772-.156.772-.585,0-.4-.353-.57-.793-.57h-.316Zm0-2.557v.952h.327c.439,0,.688-.206.688-.5,0-.326-.248-.476-.652-.476A1.777,1.777,0,0,0,326.708,133.924Zm32.51,3.019v-2.956h-.994v-.534h2.635v.534h-1v2.956Zm-2.137,0a4.831,4.831,0,0,1-.233-.824c-.1-.456-.265-.6-.626-.611H355.9v1.435h-.631V133.5a6.038,6.038,0,0,1,.963-.073,1.62,1.62,0,0,1,1.076.28.883.883,0,0,1,.3.7.932.932,0,0,1-.632.875v.014a.891.891,0,0,1,.486.674,7.079,7.079,0,0,0,.275.973Zm-1.182-3v1.1h.379c.429,0,.7-.228.7-.574,0-.383-.269-.56-.683-.56A1.787,1.787,0,0,0,355.9,133.941Zm-7.534,3v-3.49h2.013v.525H349v.961h1.283v.524H349v1.48Zm-1.581,0-.067-1.423c-.021-.451-.047-.995-.041-1.466h-.016c-.113.425-.258.9-.413,1.336l-.508,1.512h-.492l-.465-1.491c-.134-.445-.259-.921-.352-1.356h-.011c-.015.455-.036,1.01-.061,1.487l-.077,1.4h-.6l.233-3.49h.839l.456,1.4c.122.409.232.824.319,1.211h.016c.094-.378.212-.807.346-1.217l.482-1.4h.829l.2,3.49Zm-14.549,0v-3.49h2.029v.525H332.87v.9h1.315v.518H332.87v1.024h1.471v.524Zm-2.865,0v-3.49h.638v2.957h1.433v.534Zm-4.775,0-.315-.989h-1.109l-.3.989h-.658l1.119-3.49h.812l1.133,3.49Zm-1.051-2.33-.269.859h.9l-.274-.859c-.067-.212-.124-.45-.176-.652h-.01C323.658,134.163,323.606,134.407,323.544,134.613Zm-2.527,2.33-.988-1.6-.311.373v1.227h-.632v-3.49h.632v1.606h.015c.083-.135.172-.258.253-.378l.913-1.228h.786l-1.2,1.486,1.278,2Zm-3.376,0a5.116,5.116,0,0,1-.233-.824c-.1-.456-.265-.6-.626-.611h-.321v1.435h-.631V133.5a6.038,6.038,0,0,1,.963-.073,1.614,1.614,0,0,1,1.076.28.88.88,0,0,1,.3.7.931.931,0,0,1-.632.875v.014a.885.885,0,0,1,.487.674,7.249,7.249,0,0,0,.275.973Zm-1.181-3v1.1h.378c.43,0,.7-.228.7-.574,0-.383-.268-.56-.683-.56A1.783,1.783,0,0,0,316.46,133.941Zm-2.113,3-.316-.989h-1.108l-.3.989h-.659l1.119-3.49h.812l1.134,3.49Zm-1.051-2.33-.268.859h.895l-.274-.859c-.067-.212-.125-.45-.176-.652h-.01C313.41,134.163,313.358,134.407,313.3,134.613Zm-2.62,2.33-.068-1.423c-.021-.451-.045-.995-.041-1.466h-.014c-.114.425-.259.9-.415,1.336l-.508,1.512h-.491l-.466-1.491c-.134-.445-.258-.921-.351-1.356h-.011c-.014.455-.035,1.01-.062,1.487l-.077,1.4h-.595l.233-3.49h.837l.456,1.4c.124.409.232.824.321,1.211h.015c.093-.378.212-.807.346-1.217l.482-1.4h.827l.2,3.49Zm-5.99,0v-3.49h2.029v.525h-1.392v.9h1.315v.518h-1.315v1.024h1.47v.524Zm-1.446,0a5.152,5.152,0,0,1-.232-.824c-.1-.456-.265-.6-.626-.611h-.321v1.435h-.631V133.5a6.017,6.017,0,0,1,.962-.073,1.617,1.617,0,0,1,1.076.28.88.88,0,0,1,.3.7.931.931,0,0,1-.632.875v.014a.887.887,0,0,1,.487.674,7.15,7.15,0,0,0,.274.973Zm-1.18-3v1.1h.378c.429,0,.7-.228.7-.574,0-.383-.269-.56-.683-.56A1.783,1.783,0,0,0,302.059,133.941Zm-3.719,3-.911-1.533a12.292,12.292,0,0,1-.626-1.206l-.015.005c.026.45.032.911.032,1.486v1.247h-.585v-3.49h.725l.9,1.5a9.55,9.55,0,0,1,.595,1.169h.011c-.041-.465-.057-.916-.057-1.449v-1.218H299v3.49Zm-3.785,0v-3.49h.636v3.49Zm-4.36,0v-3.49h2.029v.525h-1.393v.9h1.315v.518h-1.315v1.024h1.47v.524Zm-1.445,0a4.862,4.862,0,0,1-.232-.824c-.1-.456-.266-.6-.627-.611h-.321v1.435h-.632V133.5a6.047,6.047,0,0,1,.963-.073,1.621,1.621,0,0,1,1.077.28.886.886,0,0,1,.3.7.932.932,0,0,1-.632.875v.014a.893.893,0,0,1,.486.674,7.111,7.111,0,0,0,.274.973Zm-1.181-3v1.1h.378c.429,0,.7-.228.7-.574,0-.383-.27-.56-.684-.56A1.784,1.784,0,0,0,287.57,133.941Zm-6.753,3v-2.956h-.995v-.534h2.635v.534h-1v2.956Zm-1.73,0-.315-.989h-1.109l-.3.989h-.658l1.118-3.49h.813l1.134,3.49Zm-1.051-2.33-.269.859h.9l-.275-.859c-.067-.212-.124-.45-.176-.652H278.2C278.15,134.163,278.1,134.407,278.036,134.613Zm-2.776,2.33-.911-1.533a11.919,11.919,0,0,1-.626-1.206l-.015.005c.026.45.031.911.031,1.486v1.247h-.585v-3.49h.725l.9,1.5a9.3,9.3,0,0,1,.595,1.169h.011c-.041-.465-.057-.916-.057-1.449v-1.218h.59v3.49Zm-6.467,0v-3.49h2.029v.525H269.43v.9h1.315v.518H269.43v1.024h1.47v.524Zm-5.06,0-.912-1.533a12.3,12.3,0,0,1-.626-1.206l-.015.005c.026.45.031.911.031,1.486v1.247h-.585v-3.49h.725l.9,1.5a9.681,9.681,0,0,1,.595,1.169h.011c-.041-.465-.058-.916-.058-1.449v-1.218h.59v3.49Zm-5.085,0v-3.49h2.029v.525h-1.391v.9H260.6v.518h-1.315v1.024h1.47v.524Zm-1.678,0v-3.49h.638v3.49Zm-1.445,0a4.924,4.924,0,0,1-.233-.824c-.1-.456-.263-.6-.626-.611h-.32v1.435h-.632V133.5a6.047,6.047,0,0,1,.963-.073,1.618,1.618,0,0,1,1.076.28.883.883,0,0,1,.3.7.931.931,0,0,1-.632.875v.014a.891.891,0,0,1,.487.674,6.73,6.73,0,0,0,.274.973Zm-1.18-3v1.1h.377c.429,0,.7-.228.7-.574,0-.383-.27-.56-.683-.56A1.777,1.777,0,0,0,254.345,133.941Zm-3.61,3v-3.49h2.029v.525h-1.392v.9h1.314v.518h-1.314v1.024h1.47v.524Zm-3.2,0V133.5a5.491,5.491,0,0,1,.972-.073,1.583,1.583,0,0,1,1.031.284.986.986,0,0,1,.342.772,1.053,1.053,0,0,1-.3.791,1.536,1.536,0,0,1-1.1.374,1.9,1.9,0,0,1-.311-.021v1.315Zm.632-3v1.181a1.281,1.281,0,0,0,.311.026c.475,0,.766-.233.766-.643,0-.389-.27-.595-.709-.595A1.772,1.772,0,0,0,248.162,133.945Zm-2.15,3-.378-.695c-.15-.268-.247-.454-.346-.657h-.015c-.083.2-.176.389-.316.657l-.346.695h-.73l1.035-1.766-.994-1.724h.729l.378.721c.114.218.2.389.29.585h.01c.094-.218.167-.373.275-.585l.373-.721h.729l-1.02,1.7,1.062,1.786Zm-4.846,0v-3.49H243.2v.525H241.8v.9h1.315v.518H241.8v1.024h1.471v.524Zm99.7-10.127a3.249,3.249,0,0,1,3.266-3.515,3.129,3.129,0,0,1,3.187,3.4,3.2,3.2,0,0,1-3.3,3.535A3.13,3.13,0,0,1,340.864,126.816Zm1.6-.03c0,1.316.616,2.242,1.633,2.242s1.614-.977,1.614-2.281c0-1.206-.578-2.241-1.623-2.241C343.065,124.507,342.468,125.483,342.468,126.787Zm-59.715.369v-3.744h1.524v3.863c0,1.156.438,1.743,1.215,1.743.8,0,1.235-.557,1.235-1.743v-3.863h1.514v3.763c0,2.072-1.046,3.058-2.8,3.058C283.749,130.233,282.753,129.3,282.753,127.156Zm-8.434-.339a3.249,3.249,0,0,1,3.266-3.515,3.13,3.13,0,0,1,3.188,3.4,3.2,3.2,0,0,1-3.3,3.535A3.129,3.129,0,0,1,274.319,126.816Zm1.6-.03c0,1.316.616,2.242,1.633,2.242s1.613-.977,1.613-2.281c0-1.206-.578-2.241-1.624-2.241C276.52,124.507,275.923,125.483,275.923,126.787Zm58.619,3.029.309-1.255a3.876,3.876,0,0,0,1.683.418c.7,0,1.065-.289,1.065-.727,0-.418-.318-.657-1.125-.946-1.116-.388-1.841-1.005-1.841-1.982,0-1.146.955-2.022,2.539-2.022a4.12,4.12,0,0,1,1.714.338l-.338,1.226a3.189,3.189,0,0,0-1.4-.32c-.657,0-.976.3-.976.647,0,.429.378.618,1.244.947,1.185.438,1.744,1.056,1.744,2,0,1.127-.867,2.082-2.709,2.082A4.4,4.4,0,0,1,334.542,129.815ZM267.7,126.867a3.422,3.422,0,0,1,3.665-3.566,3.945,3.945,0,0,1,1.654.3l-.31,1.2a3.271,3.271,0,0,0-1.274-.249,2.207,2.207,0,0,0,.01,4.412,3.815,3.815,0,0,0,1.264-.218l.23,1.184a4.321,4.321,0,0,1-1.723.289A3.193,3.193,0,0,1,267.7,126.867Zm89.807,3.257v-5.438h-1.8v-1.274h5.159v1.274h-1.832v5.438Zm-4.68,0a8.483,8.483,0,0,1-.467-1.563c-.179-.838-.468-1.066-1.085-1.076h-.458v2.64h-1.5V123.5a13.425,13.425,0,0,1,2.022-.139,3.424,3.424,0,0,1,2.17.527,1.7,1.7,0,0,1,.618,1.4,1.78,1.78,0,0,1-1.185,1.653v.03a1.692,1.692,0,0,1,.9,1.255c.209.757.418,1.633.548,1.893Zm-2.011-5.588v1.853h.6c.758,0,1.206-.378,1.206-.967,0-.617-.419-.926-1.117-.936A3.788,3.788,0,0,0,350.813,124.536Zm-22.325,5.588v-6.712h4.143v1.244h-2.619v1.394h2.47v1.237h-2.47v1.592h2.759v1.246Zm-3.385,0a8.43,8.43,0,0,1-.469-1.563c-.179-.838-.468-1.066-1.085-1.076h-.458v2.64h-1.5V123.5a13.413,13.413,0,0,1,2.021-.139,3.428,3.428,0,0,1,2.171.527,1.7,1.7,0,0,1,.617,1.4,1.781,1.781,0,0,1-1.184,1.653v.03a1.692,1.692,0,0,1,.9,1.255c.209.757.418,1.633.547,1.893Zm-2.012-5.588v1.853h.6c.756,0,1.2-.378,1.2-.967,0-.617-.419-.926-1.115-.936A3.823,3.823,0,0,0,323.09,124.536Zm-9.958,5.588v-2.749l-2.12-3.964h1.732l.688,1.614c.209.487.348.845.517,1.283h.02c.149-.418.31-.806.508-1.283l.677-1.614h1.7l-2.21,3.913v2.8Zm-4.748,0a8.386,8.386,0,0,1-.468-1.563c-.179-.838-.469-1.066-1.085-1.076h-.458v2.64h-1.5V123.5a13.39,13.39,0,0,1,2.021-.139,3.429,3.429,0,0,1,2.172.527,1.7,1.7,0,0,1,.617,1.4,1.782,1.782,0,0,1-1.185,1.653v.03a1.7,1.7,0,0,1,.9,1.255c.209.757.418,1.633.547,1.893Zm-2.011-5.588v1.853h.6c.758,0,1.205-.378,1.205-.967,0-.617-.418-.926-1.115-.936A3.792,3.792,0,0,0,306.373,124.536Zm-6.662,5.588v-5.438h-1.8v-1.274h5.16v1.274h-1.832v5.438Zm-5.2,0-1.435-2.59a25.075,25.075,0,0,1-1.165-2.37l-.031.009c.04.886.06,1.833.06,2.929v2.021H290.55v-6.712h1.772l1.394,2.459a19.364,19.364,0,0,1,1.1,2.3h.03a25.013,25.013,0,0,1-.13-2.8v-1.962h1.395v6.712Zm-35.6,0v-6.712h1.524v5.437h2.669v1.275Zm-6.083,0v-6.712h1.523v5.437h2.669v1.275Zm-3.834,0v-6.712h1.524v6.712Zm-3.833,0v-2.809h-2.5v2.809h-1.524v-6.712h1.524v2.578h2.5v-2.578h1.515v6.712Zm72.4-9.06c-1.833-.078-3.69-.167-5.559-.271l-5.665-.494c-1.883-.2-3.741-.467-5.616-.7l-5.585-.751c-1.84-.283-3.692-.394-5.521-.582s-3.652-.284-5.451-.41c-.9-.05-1.794-.137-2.684-.158l-2.65-.081c-.877-.021-1.746-.067-2.607-.066l-2.56-.007c-.844,0-1.681-.022-2.506-.005l-2.445.061c-.806.024-1.6.03-2.381.069l-2.308.119c-1.517.052-2.977.162-4.381.268-1.406.086-2.746.238-4.027.353s-2.489.257-3.627.386c-2.275.275-4.257.548-5.886.806s-2.907.48-3.775.648l-1.332.266s1.774-.666,4.978-1.52c1.6-.423,3.556-.919,5.822-1.374,2.262-.472,4.829-.955,7.65-1.34,1.41-.2,2.879-.413,4.407-.569,1.526-.179,3.109-.329,4.738-.434l2.478-.182c.836-.057,1.685-.076,2.543-.117l2.6-.1c.57-.017,1.142-.014,1.718-.012q.466,0,.934,0l2.7,0c.908,0,1.818.057,2.736.082l2.772.1c.93.02,1.858.131,2.793.2,1.867.174,3.757.272,5.637.54l5.628.7c1.868.237,3.745.517,5.6.725l5.5.546q2.757.177,5.461.386l5.342.235,5.173.094c1.691.022,3.346-.005,4.958-.005,3.224-.065,6.272-.158,9.089-.3,2.813-.161,5.392-.333,7.68-.523,2.282-.207,4.277-.4,5.915-.581s2.928-.346,3.8-.471l1.346-.192s-.454.138-1.309.369-2.118.552-3.737.906l-2.686.568c-.98.191-2.043.39-3.18.586s-2.351.4-3.633.59-2.633.369-4.046.535-2.885.338-4.414.48c-1.528.125-3.11.262-4.739.361-1.629.08-3.3.19-5.016.25s-3.466.075-5.248.084Zm29.072-7.663-1.03-4.828h-5.7l-1.06,4.828h-3.431l5.549-23.349h1.992V87.368c-.255,0-.516,0-.542,0l-.244,1.66a6.605,6.605,0,0,0-1.839-.008l.681-1.967a6.857,6.857,0,0,1-.7-.282l-.751,1.507a6.557,6.557,0,0,0-1.744-.578l1.265-1.669a7.045,7.045,0,0,1-.641-.55l-1.209,1.2a6.567,6.567,0,0,0-1.465-1.111l1.753-1.181a6.85,6.85,0,0,1-.555-.988l-1.58.684a6.577,6.577,0,0,0-.963-1.567l2.087-.47a6.682,6.682,0,0,1-.154-1.089l-1.747.073a6.585,6.585,0,0,0-.336-1.808l2.143.314a6.811,6.811,0,0,1,.18-.841l-1.7-.509a6.622,6.622,0,0,0,.273-1.819l1.949,1.011a6.712,6.712,0,0,1,.526-.852L336.2,75.436a6.565,6.565,0,0,0,.888-1.61l1.492,1.639a6.957,6.957,0,0,1,.881-.682l-.959-1.551a6.6,6.6,0,0,0,1.411-1.179l.8,2.083a6.951,6.951,0,0,1,.7-.233l-.433-1.778a6.6,6.6,0,0,0,1.708-.682l.114,2.233c.137-.008.275-.014.413-.014a6.83,6.83,0,0,1,.784.046l.265-1.813a6.621,6.621,0,0,0,1.84.006l-.73,2.111a6.65,6.65,0,0,1,.686.269l.815-1.637a6.6,6.6,0,0,0,1.745.58l-1.344,1.771a7.01,7.01,0,0,1,.635.528l1.292-1.278a6.584,6.584,0,0,0,1.465,1.112l-1.831,1.232a6.8,6.8,0,0,1,.57.964l1.642-.711a6.6,6.6,0,0,0,.962,1.566l-2.121.48a6.827,6.827,0,0,1,.185,1.213H351.3s-.585-1.207,2.578-1.64l5.721-1.02.216,6.35-6.045-.991s-2.535-.3-2.623-1.8l-1.073-.015a6.78,6.78,0,0,1-.2,1.261l1.66.5a6.613,6.613,0,0,0-.273,1.818l-1.885-.977a6.89,6.89,0,0,1-.517.873l1.369,1.03a6.559,6.559,0,0,0-.887,1.612l-1.417-1.556a6.926,6.926,0,0,1-.888.711l.891,1.437a6.57,6.57,0,0,0-1.411,1.18l-.749-1.947a6.465,6.465,0,0,1-.717.244l.4,1.632a4.652,4.652,0,0,0-1.858.269l-.142-1.7c-.025,0-.249,0-.482,0h-.017v2.685h1.716l5.491,23.349Zm-5.855-8.829h3.973L342.8,95.39Zm2.2-17.467c.227,0,.447,0,.476,0l-.255-2.639-.032-.374c-.072,0-.142,0-.212-.008l-.06-.005-.442,3.021c.029,0,.266,0,.5,0Zm1.3-3.169.721,2.966a6.3,6.3,0,0,0,.684-.233l-1.094-2.847A3.267,3.267,0,0,1,344.273,83.936Zm-3.845,2.593a6.6,6.6,0,0,0,.671.269l1-2.885c-.1-.035-.207-.074-.308-.118Zm4.865-3.107,1.609,2.6a6.6,6.6,0,0,0,.849-.682L345.7,83.084A3.565,3.565,0,0,1,345.292,83.422Zm-6.664,1.868a6.8,6.8,0,0,0,.612.526l1.846-2.433a3.5,3.5,0,0,1-.288-.239Zm7.582-2.835,2.441,1.837a6.751,6.751,0,0,0,.493-.836l-2.712-1.4A3.828,3.828,0,0,1,346.21,82.454Zm-9,.833a6.53,6.53,0,0,0,.53.946l2.529-1.7a3.663,3.663,0,0,1-.257-.456Zm2.717-2.75a3.289,3.289,0,0,0,6.556.39l-2.423-.034a.92.92,0,1,1-.045-.795h2.461a3.289,3.289,0,0,0-6.548.439Zm6.769.748,2.928.877a6.687,6.687,0,0,0,.187-1.188l-3.058-.042C346.738,81.052,346.718,81.17,346.694,81.286Zm-10.075-.344a6.705,6.705,0,0,0,.148,1.04l2.977-.671a3.638,3.638,0,0,1-.074-.5Zm10.029-1.327a3.587,3.587,0,0,1,.1.483h3.064a6.7,6.7,0,0,0-.18-1.156Zm-9.97-.045,3.022.443c.019-.125.044-.249.075-.37l-2.926-.876A6.585,6.585,0,0,0,336.678,79.571Zm.673-2.075,2.709,1.4a3.522,3.522,0,0,1,.23-.383l-2.438-1.834A6.758,6.758,0,0,0,337.352,77.5Zm8.734.948a3.512,3.512,0,0,1,.274.43l2.8-1.216a6.591,6.591,0,0,0-.544-.92Zm-7.326-2.78,2.055,2.258a3.592,3.592,0,0,1,.392-.317L339.6,75.01A6.709,6.709,0,0,0,338.759,75.663Zm6.511,1.976a3.336,3.336,0,0,1,.281.221l2.172-2.149a6.781,6.781,0,0,0-.607-.5Zm-.981-.492c.1.032.2.067.293.107l1.36-2.733a6.524,6.524,0,0,0-.654-.256Zm-3.481-2.76,1.1,2.848c.1-.038.194-.073.293-.1l-.72-2.966A6.675,6.675,0,0,0,340.807,74.386ZM343.517,77l.442-3.023a6.731,6.731,0,0,0-.743-.043c-.134,0-.267.005-.4.013l.156,3.049c.08-.005.161-.013.244-.013C343.318,76.98,343.417,76.987,343.517,77ZM349.99,107.6v-1.394h3.446v1.62c0,1.62.729,2.2,1.889,2.2s1.889-.583,1.889-2.2c0-1.651-.729-2.884-3.116-4.925-3.048-2.624-4.009-4.5-4.009-7.095,0-3.629,1.823-5.7,5.368-5.7s5.368,2.074,5.368,5.7v.713h-3.447v-.94c0-1.62-.662-2.236-1.823-2.236s-1.822.616-1.822,2.236c0,1.652.73,2.884,3.117,4.924,3.047,2.625,4.009,4.5,4.009,7.1,0,3.628-1.856,5.7-5.434,5.7S349.99,111.231,349.99,107.6Zm-19.141,5.7-2.949-9.18h-.067l-2.983,9.18h-3.414l4.077-11.931L321.7,90.107h3.776l2.718,8.55h.067l2.784-8.55h3.38l-3.811,11.267,4.076,11.931Zm-20.452,0v-23.2h9.942v3.314h-6.3v6.463h5V103.2h-5v6.794h6.3v3.315Zm-9.375,0V93.421h-3.811V90.107H308.48v3.314h-3.812v19.885Zm-19.752,0v-23.2h9.941v3.314h-6.3v6.463h5V103.2h-5v6.794h6.3v3.315Zm-19.182,0-3.547-9.247-1.127,2.12v7.126h-3.645v-23.2h3.645v10.041h.067l4.706-10.041h3.645l-5.071,10.339,5.071,12.859Zm-20.947-5.7v-1.394h3.446v1.62c0,1.62.73,2.2,1.889,2.2s1.889-.583,1.889-2.2c0-1.651-.728-2.884-3.115-4.925-3.048-2.624-4.01-4.5-4.01-7.095,0-3.629,1.822-5.7,5.369-5.7s5.368,2.074,5.368,5.7v.713h-3.447v-.94c0-1.62-.662-2.236-1.822-2.236s-1.822.616-1.822,2.236c0,1.652.729,2.884,3.115,4.924,3.049,2.625,4.009,4.5,4.009,7.1,0,3.628-1.855,5.7-5.434,5.7S241.141,111.231,241.141,107.6Zm32.383,5.7h-1.683v-7.713s-4.385-13.754-4.523-14.131c-.211-.572-.407-1.052-.553-1.388h3.387c.285.9.7,2.192,1.085,3.428h0c.992,3.161,2.231,7.153,2.231,7.153h.117s1.239-3.992,2.231-7.153h0c.393-1.257.792-2.531,1.078-3.433h3.4c-.148.339-.342.807-.558,1.394-.139.377-4.524,14.131-4.524,14.131V113.3Zm-5.469-23.26c-.189-.436-.306-.664-.306-.664-.666-1.03-1.426-1.066-2.285-1.478-.806-.387-1.876-.893-2.626-1.277-.12-.058-.237-.12-.352-.184-.135-.072-.252-.138-.342-.193-.014-.008-.029-.02-.043-.03a11.808,11.808,0,0,1-2.3-1.815,7.073,7.073,0,0,1-.973-1.24,5.067,5.067,0,0,1-.8-2.686,6.811,6.811,0,0,1,.746-2.869,19.7,19.7,0,0,1,1.642-2.8c.734-1.033,1.033-1.377,1.148-1.252s-.275.759-.275.759a46.955,46.955,0,0,0-1.951,4.407,5.129,5.129,0,0,0,.015,2.816,2.554,2.554,0,0,0,.578,1.156c-.012-.779-.133-2.486-.257-3.811.005-.018.01-.036.015-.053a20.929,20.929,0,0,1,.791-1.939c.075.557.158,1.123.247,1.644.306,1.791.184,3.948,1.01,5.065s1.087,1.164.949.275a18.755,18.755,0,0,1-.168-3.794,32.566,32.566,0,0,1,1.071-4.3c.4-1.057.275.9.184,1.392s-.214,2.3-.292,3.506a18.312,18.312,0,0,0,.812,4.53c.2.566,1.263,1.064,2.272,1.263s1.035-.62,1.158-1.339-.077-1.9-.046-2.953.566-1.485.473-.751a5.091,5.091,0,0,0,.429,2.066,5.556,5.556,0,0,1,.185,1.829c-.1,1.941-.059,1.7.21,2.242A9.4,9.4,0,0,1,270.026,90c.006.021.014.042.021.064Zm8.971-.088a9.457,9.457,0,0,1,1.058-2.437c.269-.539.311-.3.21-2.242a5.532,5.532,0,0,1,.186-1.829,5.1,5.1,0,0,0,.428-2.066c-.092-.735.444-.307.474.75s-.168,2.234-.046,2.953.147,1.539,1.157,1.34,2.074-.7,2.272-1.264a18.3,18.3,0,0,0,.812-4.53c-.077-1.209-.2-3.015-.291-3.5s-.215-2.449.183-1.393a32.6,32.6,0,0,1,1.071,4.3,18.831,18.831,0,0,1-.168,3.8c-.137.887.122.841.949-.275s.7-3.275,1.01-5.066c.089-.521.173-1.087.247-1.643a20.831,20.831,0,0,1,.791,1.938c.005.018.01.036.015.054-.125,1.325-.246,3.031-.257,3.81a2.542,2.542,0,0,0,.577-1.156,5.126,5.126,0,0,0,.015-2.815,46.843,46.843,0,0,0-1.952-4.408s-.39-.632-.275-.758.413.218,1.147,1.251a19.762,19.762,0,0,1,1.643,2.8,6.821,6.821,0,0,1,.745,2.869,5.061,5.061,0,0,1-.8,2.686,7.11,7.11,0,0,1-.972,1.239,11.883,11.883,0,0,1-2.3,1.816c-.014.009-.028.022-.043.03-.089.055-.207.12-.342.193-.115.063-.232.125-.352.184-.751.384-1.819.889-2.625,1.276-.859.412-1.62.448-2.286,1.478,0,0-.117.229-.306.664L277,90.02C277.013,90,277.019,89.978,277.025,89.956ZM342.954,87.1v0ZM287.387,75.436l-.094-.131c.022-.283.035-.508.035-.642a11.305,11.305,0,0,0-.676-4.263s-.3-.779.233-.163a6.232,6.232,0,0,1,1.176,3.108c.046,1.024.139,1.758.139,2.456,0,.272,0,.563-.017.862C287.947,76.267,287.679,75.846,287.387,75.436Zm-28.444.365c0-.7.094-1.432.14-2.456a6.213,6.213,0,0,1,1.174-3.108c.536-.617.233.163.233.163a11.318,11.318,0,0,0-.675,4.263c0,.134.013.359.036.642l-.095.131c-.292.41-.561.831-.8,1.227C258.948,76.364,258.944,76.073,258.944,75.8Z"/></g></svg>