<svg xmlns="http://www.w3.org/2000/svg" width="28" height="28" viewBox="0 0 28 28"><defs><style>.a{fill:none;}.b{fill:#fff;fill-rule:evenodd;}</style></defs><g transform="translate(0.002 0.942)"><g transform="translate(-0.002 -0.942)"><rect class="a" width="28" height="28"/><path class="b" d="M27.138,13.21a11.318,11.318,0,0,1-3.2.853,5.462,5.462,0,0,0,2.448-3,11.314,11.314,0,0,1-3.538,1.314,5.624,5.624,0,0,0-4.064-1.712,5.5,5.5,0,0,0-5.566,5.423,5.267,5.267,0,0,0,.143,1.235A15.947,15.947,0,0,1,1.888,11.657a5.31,5.31,0,0,0-.754,2.729A5.386,5.386,0,0,0,3.611,18.9a5.686,5.686,0,0,1-2.523-.677v.067a5.463,5.463,0,0,0,4.468,5.318,5.57,5.57,0,0,1-1.467.191,5.686,5.686,0,0,1-1.048-.1,5.553,5.553,0,0,0,5.2,3.764A11.358,11.358,0,0,1,1.327,29.79,11.7,11.7,0,0,1,0,29.715,16.093,16.093,0,0,0,8.533,32.15,15.518,15.518,0,0,0,24.375,16.72c0-.236,0-.472-.014-.7a11.1,11.1,0,0,0,2.777-2.807" transform="translate(0.002 -6.978)"/></g></g></svg>